<svg id="Layer_1" enable-background="new 0 0 512.002 512.002" height="512" viewBox="0 0 512.002 512.002" width="512" xmlns="http://www.w3.org/2000/svg"><g><g><path d="m107.448 235.202-87.222-68.5-7.879 4.21 49.193 296.531c1.079 6.504 6.704 11.273 13.297 11.273 7.816 0 13.994-6.627 13.445-14.424l-8.637-122.75c-2.346-33.348 7.577-66.348 27.803-92.842z" fill="#ffe07d"/><path d="m75.048 466.281-27.323-277.983-27.499-21.596-7.879 4.21 49.193 296.531c1.079 6.504 6.704 11.273 13.297 11.273 2.589 0 4.991-.739 7.035-1.995-3.742-2.1-6.381-5.933-6.824-10.44z" fill="#ffd064"/><path d="m238.403 272.208c-72.128-134.05-149.801-219.74-149.801-219.74l-5.127 15.734 153.456 292.167 74.21 29.333 74.119-22v-12.431c-47.636 3.1-107.811-10.496-146.857-83.063z" fill="#ec625e"/><path d="m311.142 389.702 34.67-10.291c-41.623-9.612-85.545-36.352-108.141-101.697-2.288-6.616-4.604-13.131-6.94-19.544-69.855-125.96-142.129-205.702-142.129-205.702l-5.127 15.734 102.151 194.486 2.135-.832 4.516 13.494 44.655 85.019z" fill="#df4854"/><path d="m52.313 38.969c6.85-7.765 19.01-7.57 25.679.351 21.026 24.969 65.704 84.803 105.186 182.496 51.637 127.77 96.926 192.686 204.667 132.035 9.219-5.19 20.336-5.784 30.038-1.566 29.666 9.362 52.513 18.393 69.829 26.309 22.379 10.23 22.4 41.992-.011 52.151-29.167 13.221-69.82 29.23-116.759 40.964-40.799 10.2-77.137 7.864-105.35 1.86-34.007-7.238-61.175-32.788-70.572-66.263-42.415-151.093-157.616-222.418-182.673-236.394-3.028-1.689-4.892-4.902-4.843-8.37.892-63.864 27.861-104.362 44.809-123.573z" fill="#f87c68"/><g><path d="m304.26 464.235c-34.007-7.238-61.175-32.788-70.573-66.263-42.416-151.092-157.617-222.418-182.674-236.393-3.028-1.689-4.892-4.902-4.843-8.37.726-51.98 18.727-88.479 34.539-110.622-.939-1.141-1.855-2.245-2.717-3.269-6.669-7.92-18.829-8.115-25.679-.351-16.948 19.213-43.917 59.711-44.81 123.576-.049 3.467 1.815 6.681 4.843 8.37 25.057 13.975 140.258 85.301 182.674 236.393 9.397 33.475 36.565 59.025 70.572 66.263 28.214 6.005 64.551 8.34 105.35-1.86 7.128-1.782 14.108-3.663 20.928-5.618-33.594 5.709-63.556 3.263-87.61-1.856z" fill="#ec625e"/></g></g><g><path d="m490.829 371.772c-20.209-9.239-43.871-18.164-70.335-26.528-11.355-4.801-24.489-4.538-37.322 2.62-32.302 1.828-60.918-4.879-85.072-19.981-3.511-2.195-8.14-1.129-10.335 2.383-2.196 3.512-1.129 8.14 2.384 10.335 18.638 11.653 39.556 18.823 62.475 21.445-106.239 38.277-135.573-89.958-182.948-189.676 61.431 92.299 61.326 112.889 91.48 144.481 2.86 2.996 7.606 3.105 10.604.247 2.996-2.86 3.106-7.607.246-10.604-10.099-10.581-19.183-23.312-27-37.841-49.381-91.774-99.808-161.159-161.278-234.166-9.616-11.417-27.156-11.684-37.041-.481-17.036 19.311-45.753 61.674-46.685 128.433-.067 4.864 1.955 9.433 5.434 12.651l48.703 293.58c1.687 10.167 10.391 17.545 20.695 17.545 12.15 0 21.78-10.327 20.927-22.451l-6.577-93.482c-.291-4.132-3.882-7.246-8.008-6.955-4.132.291-7.246 3.876-6.955 8.008l6.577 93.483c.243 3.465-2.494 6.397-5.964 6.397-2.937 0-5.417-2.103-5.898-5l-46.529-280.48c17.562 11.28 46.069 32.039 75.314 63.583-17.583 25.296-26.729 55.836-25.853 86.704.115 4.068 3.449 7.287 7.493 7.287.072 0 .145-.001.217-.003 4.141-.118 7.401-3.569 7.284-7.71-.751-26.464 6.723-52.657 21.165-74.728 31.309 36.461 62.073 85.419 79.771 148.463 10.192 36.309 39.403 63.733 76.231 71.572 34.98 7.444 71.591 7.365 108.731-1.92 49.181-12.295 91.334-29.305 118.036-41.409 28.305-12.831 28.234-52.911.033-65.802zm-121.707 92.66c-33.694 8.423-68.003 9.029-101.97 1.8-31.358-6.674-56.231-30.03-64.913-60.955-17.651-62.878-49.836-118.633-89.218-161.595-26.6-29.555-62.148-59.877-97.023-79.321-.625-.349-1.008-1.006-.998-1.714.866-61.927 27.271-100.962 42.934-118.718 3.837-4.347 10.622-4.172 14.318.22 98.272 116.714 113.477 245.015 174.842 308.74 42.351 43.878 91.517 37.274 144.428 7.496 7.145-4.023 15.88-4.48 23.367-1.224 1.728.748 35.76 10.735 69.702 26.252 16.565 7.573 16.624 30.969.011 38.499-26.137 11.849-67.388 28.497-115.48 40.52z"/></g></g></svg>