<?xml version="1.0" encoding="iso-8859-1"?>
<!-- Generator: Adobe Illustrator 19.0.0, SVG Export Plug-In . SVG Version: 6.00 Build 0)  -->
<svg version="1.1" id="Capa_1" xmlns="http://www.w3.org/2000/svg" xmlns:xlink="http://www.w3.org/1999/xlink" x="0px" y="0px"
	 viewBox="0 0 512 512" style="enable-background:new 0 0 512 512;" xml:space="preserve">
<path style="fill:#EEA33E;" d="M408.711,116.696c0.855,0.917,1.381,2.154,1.381,3.514v386.638c0,2.844-2.308,5.152-5.152,5.152
	h-66.957V115.057l27.509,6.443L408.711,116.696z"/>
<path style="fill:#DF862A;" d="M408.711,116.696c0.855,0.917,1.381,2.154,1.381,3.514v78.065l-15.073,103.582l15.073,126.923v78.068
	c0,2.844-2.308,5.152-5.152,5.152h-39.445V115.057l24.024,6.609L408.711,116.696z"/>
<path style="fill:#E2E8ED;" d="M408.711,116.696l-32.769,27.251c-0.764,0.635-1.872,0.635-2.636,0l-7.812-6.498l-26.925-22.391
	h66.37C406.424,115.058,407.763,115.686,408.711,116.696z"/>
<path style="fill:#49B76E;" d="M155.833,119V34.737c0-2.845-2.307-5.152-5.152-5.152h-43.62c-2.845,0-5.152-2.307-5.152-5.152V5.156
	c0-2.845,2.307-5.152,5.152-5.152h62.168c8.536,0,15.456,6.92,15.456,15.456V119H155.833z"/>
<path style="fill:#35AA56;" d="M184.685,15.456V119h-17.157V15.456C167.529,6.924,160.614,0,152.072,0h17.157
	C177.771,0,184.685,6.924,184.685,15.456z"/>
<path style="fill:#EEA33E;" d="M116.019,298l-14.11-99.726v-78.216c0-2.761,2.239-5,5-5h231.53v396.939h-231.53
	c-2.761,0-5-2.239-5-5V428.78L116.019,298z"/>
<rect x="293.841" y="115.06" style="fill:#DF862A;" width="44.6" height="396.94"/>
<rect x="101.911" y="198.27" style="fill:#E2E8ED;" width="308.18" height="230.5"/>
<g>
	<rect x="293.841" y="198.27" style="fill:#CFDDE8;" width="44.6" height="230.5"/>
	<rect x="365.49" y="198.27" style="fill:#CFDDE8;" width="44.6" height="230.5"/>
</g>
<g>
	<path style="fill:#49B76E;" d="M230.336,277.98c-4.142,0-7.5-3.358-7.5-7.5v-27.106c0-4.142,3.358-7.5,7.5-7.5s7.5,3.358,7.5,7.5
		v27.106C237.836,274.622,234.478,277.98,230.336,277.98z"/>
	<path style="fill:#49B76E;" d="M295.757,238.947c0,0-18.324-8.732-36.129,3.712c-18.108,11.998-16.707,32.248-16.707,32.248
		s18.324,8.732,36.129-3.712C297.156,259.197,295.757,238.947,295.757,238.947z"/>
</g>
<path style="fill:#35AA56;" d="M279.049,271.193c-17.804,12.443-36.126,3.712-36.126,3.712s-0.171-2.491,0.385-6.244
	c6.703,1.696,18.943,2.934,30.951-5.457c11.755-7.792,15.287-19.056,16.32-26.002c3.236,0.82,5.178,1.746,5.178,1.746
	S297.158,259.198,279.049,271.193z"/>
<circle style="fill:#EEA33E;" cx="227.59" cy="330.78" r="60.31"/>
<path style="fill:#DF862A;" d="M287.893,329.727c0.58,33.304-25.942,60.768-59.247,61.348
	c-24.711,0.431-46.196-14.055-55.878-35.157c8.705,4.617,18.676,7.153,29.221,6.97c33.304-0.58,59.827-28.053,59.247-61.348
	c-0.15-8.593-2.089-16.747-5.47-24.089C274.547,287.379,287.497,306.967,287.893,329.727z"/>
<g>
</g>
<g>
</g>
<g>
</g>
<g>
</g>
<g>
</g>
<g>
</g>
<g>
</g>
<g>
</g>
<g>
</g>
<g>
</g>
<g>
</g>
<g>
</g>
<g>
</g>
<g>
</g>
<g>
</g>
</svg>
